<?xml version="1.0" encoding="utf-8"?>
<!-- Generator: Adobe Illustrator 18.1.1, SVG Export Plug-In . SVG Version: 6.00 Build 0)  -->
<svg version="1.1" id="Ebene_1" xmlns="http://www.w3.org/2000/svg" xmlns:xlink="http://www.w3.org/1999/xlink" x="0px" y="0px"
	 viewBox="-283 404.89 32 32" enable-background="new -283 404.89 32 32" xml:space="preserve">
<path fill="#FFFFFF" d="M-268.571,420.247c0,0.429,0.19,0.848,0.571,1.259s0.842,0.815,1.384,1.214
	c0.542,0.399,1.081,0.836,1.616,1.313c0.535,0.477,0.994,1.096,1.375,1.857s0.572,1.607,0.571,2.536
	c0,1.071-0.286,2.101-0.857,3.089c-0.857,1.453-2.113,2.521-3.768,3.205c-1.655,0.684-3.428,1.026-5.321,1.027
	c-1.571,0-3.039-0.247-4.402-0.741c-1.363-0.494-2.384-1.312-3.063-2.455c-0.441-0.714-0.661-1.494-0.661-2.339
	c0-0.964,0.265-1.857,0.795-2.679c0.53-0.822,1.235-1.507,2.116-2.054c1.559-0.976,3.964-1.571,7.214-1.786
	c-0.381-0.5-0.663-0.94-0.848-1.321c-0.185-0.381-0.277-0.815-0.277-1.304c0-0.429,0.125-0.935,0.375-1.518
	c-0.547,0.047-0.952,0.071-1.214,0.071c-1.762,0-3.247-0.574-4.455-1.723c-1.208-1.149-1.812-2.604-1.813-4.366
	c0-0.976,0.214-1.922,0.643-2.839c0.429-0.917,1.018-1.696,1.768-2.339c0.917-0.786,2.003-1.369,3.259-1.75
	c1.256-0.381,2.551-0.571,3.884-0.571h7.464l-2.464,1.571h-2.339c0.881,0.75,1.547,1.542,2,2.375
	c0.453,0.833,0.679,1.786,0.679,2.857c0,0.857-0.146,1.628-0.438,2.312c-0.292,0.684-0.643,1.238-1.054,1.661
	s-0.824,0.81-1.241,1.161c-0.417,0.351-0.771,0.717-1.063,1.098c-0.292,0.381-0.438,0.774-0.438,1.179H-268.571z M-271.178,418.533
	c0.453,0,0.917-0.098,1.393-0.295c0.476-0.197,0.869-0.456,1.179-0.777c0.631-0.679,0.946-1.625,0.946-2.839
	c0-0.691-0.101-1.435-0.304-2.232s-0.491-1.568-0.866-2.313c-0.375-0.745-0.878-1.361-1.509-1.848
	c-0.631-0.487-1.328-0.731-2.089-0.732c-0.5,0-0.991,0.116-1.473,0.348c-0.482,0.232-0.872,0.545-1.17,0.938
	c-0.559,0.703-0.839,1.655-0.839,2.857c0,0.547,0.06,1.128,0.179,1.741c0.119,0.613,0.307,1.226,0.563,1.839
	c0.256,0.613,0.566,1.163,0.929,1.652c0.363,0.489,0.81,0.887,1.339,1.196c0.529,0.309,1.104,0.463,1.723,0.464L-271.178,418.533z
	 M-271.142,434.122c0.691,0,1.354-0.077,1.991-0.232s1.226-0.387,1.768-0.696c0.542-0.309,0.977-0.744,1.304-1.304
	s0.491-1.209,0.491-1.946c0-0.297-0.042-0.589-0.125-0.875c-0.083-0.286-0.17-0.536-0.259-0.75c-0.089-0.214-0.25-0.461-0.482-0.741
	c-0.232-0.28-0.408-0.488-0.527-0.625c-0.119-0.137-0.349-0.342-0.688-0.616c-0.339-0.274-0.557-0.447-0.652-0.518
	c-0.095-0.071-0.342-0.25-0.741-0.536c-0.399-0.286-0.616-0.441-0.652-0.464c-0.191-0.024-0.476-0.036-0.857-0.036
	c-0.631,0-1.256,0.042-1.875,0.125c-0.619,0.083-1.259,0.232-1.92,0.446c-0.661,0.214-1.238,0.488-1.732,0.821
	c-0.494,0.333-0.902,0.777-1.223,1.33c-0.321,0.553-0.482,1.181-0.482,1.884c0,0.833,0.208,1.568,0.625,2.205
	c0.417,0.637,0.961,1.131,1.634,1.482c0.673,0.351,1.381,0.613,2.125,0.786c0.744,0.173,1.503,0.259,2.277,0.259V434.122z
	 M-256.678,418.479h3.804v1.929h-3.804v3.911h-1.875v-3.911h-3.786v-1.929h3.786v-3.875h1.875
	C-256.678,414.604-256.678,418.479-256.678,418.479z"/>
</svg>
