<?xml version="1.0" encoding="utf-8"?>
<!-- Generator: Adobe Illustrator 18.1.1, SVG Export Plug-In . SVG Version: 6.00 Build 0)  -->
<svg version="1.1" id="Ebene_1" xmlns="http://www.w3.org/2000/svg" xmlns:xlink="http://www.w3.org/1999/xlink" x="0px" y="0px"
	 viewBox="-292.5 404.89 32 32" enable-background="new -292.5 404.89 32 32" xml:space="preserve">
<path fill="#FFFFFF" d="M-281.072,419.747h9.143v-3.429c0-1.262-0.446-2.339-1.339-3.232s-1.97-1.339-3.232-1.339
	c-1.262,0-2.339,0.446-3.232,1.339s-1.339,1.97-1.339,3.232v3.429H-281.072z M-266.215,421.462v10.286
	c0,0.476-0.167,0.881-0.5,1.214c-0.333,0.333-0.738,0.5-1.214,0.5h-17.143c-0.476,0-0.881-0.167-1.214-0.5
	c-0.333-0.333-0.5-0.738-0.5-1.214v-10.286c0-0.476,0.167-0.881,0.5-1.214c0.333-0.333,0.738-0.5,1.214-0.5h0.571v-3.429
	c0-2.191,0.786-4.072,2.357-5.643c1.571-1.571,3.452-2.357,5.643-2.357c2.191,0,4.072,0.786,5.643,2.357
	c1.571,1.571,2.357,3.452,2.357,5.643v3.429h0.571c0.476,0,0.881,0.167,1.214,0.5C-266.382,420.581-266.215,420.986-266.215,421.462
	L-266.215,421.462z"/>
</svg>
