<?xml version="1.0" encoding="utf-8"?>
<!-- Generator: Adobe Illustrator 18.1.1, SVG Export Plug-In . SVG Version: 6.00 Build 0)  -->
<svg version="1.1" id="Layer_1" xmlns="http://www.w3.org/2000/svg" xmlns:xlink="http://www.w3.org/1999/xlink" x="0px" y="0px"
	 viewBox="0 0 32 32" enable-background="new 0 0 32 32" xml:space="preserve">
<path fill="#FFFFFF" d="M28.558,8.211c-0.924,0.41-1.917,0.687-2.96,0.811c1.064-0.638,1.881-1.648,2.266-2.851
	c-0.996,0.591-2.098,1.019-3.272,1.25c-0.94-1.002-2.279-1.627-3.761-1.627c-2.846,0-5.153,2.307-5.153,5.153
	c0,0.404,0.046,0.797,0.133,1.174C11.529,11.907,7.732,9.856,5.19,6.738C4.747,7.499,4.493,8.384,4.493,9.329
	c0,1.788,0.91,3.365,2.292,4.289c-0.845-0.027-1.639-0.259-2.334-0.645c0,0.022,0,0.043,0,0.065c0,2.497,1.776,4.579,4.134,5.053
	c-0.432,0.118-0.888,0.181-1.358,0.181c-0.332,0-0.655-0.032-0.969-0.092c0.656,2.047,2.559,3.537,4.814,3.579
	c-1.764,1.382-3.985,2.206-6.4,2.206c-0.416,0-0.826-0.024-1.229-0.072c2.28,1.462,4.989,2.315,7.899,2.315
	c9.478,0,14.661-7.852,14.661-14.661c0-0.223-0.005-0.446-0.015-0.667C26.994,10.152,27.867,9.245,28.558,8.211z"/>
</svg>
