<?xml version="1.0" encoding="utf-8"?>
<!-- Generator: Adobe Illustrator 18.1.1, SVG Export Plug-In . SVG Version: 6.00 Build 0)  -->
<svg version="1.1" id="Ebene_1" xmlns="http://www.w3.org/2000/svg" xmlns:xlink="http://www.w3.org/1999/xlink" x="0px" y="0px"
	 viewBox="-288.5 404.89 32 32" enable-background="new -288.5 404.89 32 32" xml:space="preserve">
<path fill="#FFFFFF" d="M-259.929,429.979c0,1.429-0.435,2.557-1.304,3.384s-2.024,1.241-3.464,1.241h-15.607
	c-1.441,0-2.595-0.414-3.464-1.241c-0.869-0.827-1.303-1.955-1.304-3.384c0-0.631,0.021-1.247,0.063-1.848
	c0.042-0.601,0.125-1.25,0.25-1.946c0.125-0.696,0.282-1.342,0.473-1.938c0.191-0.596,0.447-1.176,0.768-1.741
	c0.321-0.565,0.69-1.047,1.107-1.446c0.417-0.399,0.926-0.718,1.527-0.955c0.601-0.237,1.265-0.356,1.991-0.357
	c0.107,0,0.357,0.128,0.75,0.384c0.393,0.256,0.836,0.542,1.33,0.857c0.494,0.315,1.137,0.601,1.929,0.857
	c0.792,0.256,1.587,0.384,2.384,0.384s1.592-0.128,2.384-0.384c0.792-0.256,1.435-0.542,1.929-0.857
	c0.494-0.315,0.937-0.601,1.33-0.857c0.393-0.256,0.643-0.384,0.75-0.384c0.726,0,1.39,0.119,1.991,0.357
	c0.601,0.238,1.11,0.556,1.527,0.955c0.417,0.399,0.786,0.881,1.107,1.446c0.321,0.565,0.577,1.146,0.768,1.741
	c0.191,0.595,0.348,1.241,0.473,1.938c0.125,0.697,0.208,1.345,0.25,1.946C-259.949,428.732-259.928,429.348-259.929,429.979
	L-259.929,429.979z M-265.643,414.033c0,1.893-0.67,3.509-2.009,4.848c-1.339,1.339-2.955,2.009-4.848,2.009
	s-3.509-0.67-4.848-2.009c-1.339-1.339-2.009-2.955-2.009-4.848s0.67-3.509,2.009-4.848s2.955-2.009,4.848-2.009
	s3.509,0.67,4.848,2.009C-266.313,410.524-265.643,412.14-265.643,414.033z"/>
</svg>
