<?xml version="1.0" encoding="utf-8"?>
<!-- Generator: Adobe Illustrator 18.1.1, SVG Export Plug-In . SVG Version: 6.00 Build 0)  -->
<svg version="1.1" xmlns="http://www.w3.org/2000/svg" xmlns:xlink="http://www.w3.org/1999/xlink" x="0px" y="0px"
	 viewBox="-187.955 185 32 32" enable-background="new -187.955 185 32 32" xml:space="preserve">
<g id="Ebene_1">
	<path fill="#FFFFFF" d="M-161.833,209.446c0,1.429-0.435,2.557-1.304,3.384c-0.869,0.827-2.024,1.241-3.464,1.241h-15.607
		c-1.441,0-2.595-0.414-3.464-1.241c-0.869-0.827-1.303-1.955-1.304-3.384c0-0.631,0.021-1.247,0.063-1.848
		c0.042-0.601,0.125-1.25,0.25-1.946s0.282-1.342,0.473-1.938c0.191-0.596,0.447-1.176,0.768-1.741
		c0.321-0.565,0.69-1.047,1.107-1.446c0.417-0.399,0.926-0.718,1.527-0.955s1.265-0.356,1.991-0.357c0.107,0,0.357,0.128,0.75,0.384
		c0.393,0.256,0.836,0.542,1.33,0.857c0.494,0.315,1.137,0.601,1.929,0.857c0.792,0.256,1.587,0.384,2.384,0.384
		s1.592-0.128,2.384-0.384c0.792-0.256,1.435-0.542,1.929-0.857c0.494-0.315,0.937-0.601,1.33-0.857
		c0.393-0.256,0.643-0.384,0.75-0.384c0.726,0,1.39,0.119,1.991,0.357c0.601,0.238,1.11,0.556,1.527,0.955
		c0.417,0.399,0.786,0.881,1.107,1.446c0.321,0.565,0.577,1.146,0.768,1.741c0.191,0.595,0.348,1.241,0.473,1.938
		c0.125,0.697,0.208,1.345,0.25,1.946c0.042,0.601,0.063,1.217,0.063,1.848H-161.833z M-167.547,192.5
		c0,1.893-0.67,3.509-2.009,4.848c-1.339,1.339-2.955,2.009-4.848,2.009c-1.893,0-3.509-0.67-4.848-2.009
		c-1.339-1.339-2.009-2.955-2.009-4.848s0.67-3.509,2.009-4.848c1.339-1.339,2.955-2.009,4.848-2.009s3.509,0.67,4.848,2.009
		C-168.216,188.991-167.547,190.607-167.547,192.5z"/>
</g>
<g id="Ebene_2">
	<g>
		<path fill="#2C3E50" d="M-156.934,209.43c0,1.257-0.31,2.416-0.929,3.477c-0.619,1.061-1.459,1.902-2.521,2.521
			c-1.061,0.619-2.22,0.929-3.477,0.929s-2.416-0.31-3.477-0.929s-1.902-1.459-2.521-2.521c-0.619-1.061-0.929-2.22-0.929-3.477
			s0.31-2.416,0.929-3.477s1.459-1.902,2.521-2.521s2.22-0.929,3.477-0.929s2.416,0.31,3.477,0.929
			c1.061,0.619,1.902,1.459,2.521,2.521C-157.243,207.015-156.934,208.174-156.934,209.43z"/>
		<path fill="#F39C12" d="M-159.82,210.008v-1.155c0-0.156-0.057-0.292-0.171-0.406c-0.114-0.114-0.25-0.172-0.406-0.171h-2.309
			v-2.309c0-0.156-0.057-0.292-0.171-0.406s-0.25-0.172-0.406-0.171h-1.155c-0.156,0-0.292,0.057-0.406,0.171
			c-0.114,0.114-0.172,0.25-0.171,0.406v2.309h-2.309c-0.156,0-0.292,0.057-0.406,0.171c-0.114,0.114-0.172,0.249-0.171,0.406v1.155
			c0,0.156,0.057,0.292,0.171,0.406s0.25,0.172,0.406,0.171h2.309v2.309c0,0.156,0.057,0.292,0.171,0.406
			c0.114,0.114,0.249,0.172,0.406,0.171h1.155c0.156,0,0.292-0.057,0.406-0.171c0.114-0.114,0.172-0.25,0.171-0.406v-2.309h2.309
			c0.156,0,0.292-0.057,0.406-0.171C-159.877,210.3-159.82,210.164-159.82,210.008z"/>
	</g>
</g>
</svg>
